<?xml version="1.0" standalone="no"?>
<!DOCTYPE svg PUBLIC "-//W3C//DTD SVG 20010904//EN"
 "http://www.w3.org/TR/2001/REC-SVG-20010904/DTD/svg10.dtd">
<svg version="1.0" xmlns="http://www.w3.org/2000/svg"
 width="1200.000000pt" height="448.000000pt" viewBox="0 0 1200.000000 448.000000"
 preserveAspectRatio="xMidYMid meet">
<metadata>
Created by potrace 1.16, written by Peter Selinger 2001-2019
</metadata>
<g transform="translate(0.000000,448.000000) scale(0.100000,-0.100000)"
fill="#082e69" stroke="none">
<path d="M1185 2941 c-484 -417 -881 -764 -883 -769 -3 -9 1339 -1423 1357
-1429 6 -3 386 1208 384 1224 -1 4 -376 51 -835 104 -458 53 -844 98 -858 100
-22 4 -15 11 55 57 188 124 443 229 650 269 134 26 369 23 502 -5 167 -36 326
-101 452 -186 30 -20 55 -35 57 -33 2 2 3 324 2 716 l-3 712 -880 -760z"/>
<path d="M7415 3226 c-201 -53 -305 -189 -305 -400 0 -195 93 -332 264 -388
59 -19 90 -23 181 -21 61 1 133 8 160 15 l50 13 3 213 2 212 -145 0 -145 0 0
-50 0 -50 85 0 85 0 0 -115 c0 -135 5 -130 -110 -129 -98 0 -164 29 -225 96
-59 65 -79 128 -73 228 5 93 42 167 107 217 87 67 237 81 350 33 28 -13 53
-21 55 -19 2 2 6 30 8 62 l5 57 -51 16 c-70 21 -238 27 -301 10z"/>
<path d="M3800 2830 l0 -400 225 0 225 0 0 55 0 55 -165 0 -165 0 0 345 0 345
-60 0 -60 0 0 -400z"/>
<path d="M4417 3223 c-4 -3 -7 -183 -7 -400 l0 -393 230 0 230 0 0 55 0 55
-165 0 -165 0 0 125 0 125 150 0 150 0 0 55 0 55 -150 0 -150 0 0 110 0 110
165 0 165 0 0 55 0 55 -223 0 c-123 0 -227 -3 -230 -7z"/>
<path d="M5080 2830 l0 -400 65 0 65 0 0 400 0 400 -65 0 -65 0 0 -400z"/>
<path d="M5430 2831 l0 -401 65 0 65 0 0 154 0 153 98 6 c121 8 162 21 218 70
76 66 94 189 44 291 -42 87 -120 116 -332 123 l-158 6 0 -402z m306 266 c73
-38 99 -104 67 -167 -27 -51 -72 -73 -164 -78 l-79 -5 0 138 0 138 74 -6 c40
-3 87 -12 102 -20z"/>
<path d="M6060 3175 l0 -55 196 -2 195 -3 -200 -288 -201 -288 0 -55 0 -54
280 0 280 0 0 55 0 55 -204 2 -204 3 199 285 199 285 0 58 0 57 -270 0 -270 0
0 -55z"/>
<path d="M6790 2830 l0 -400 60 0 60 0 0 400 0 400 -60 0 -60 0 0 -400z"/>
<path d="M8340 2830 l0 -400 60 0 60 0 0 180 0 180 185 0 185 0 0 -180 0 -180
60 0 60 0 0 400 0 400 -60 0 -60 0 0 -165 0 -165 -185 0 -185 0 0 165 0 165
-60 0 -60 0 0 -400z"/>
<path d="M9257 2840 c-92 -214 -167 -394 -167 -400 0 -6 27 -10 63 -10 l62 0
39 100 39 100 190 -2 189 -3 38 -95 38 -95 66 -3 c36 -2 66 1 66 6 0 5 -72
180 -161 388 -88 208 -163 385 -166 392 -3 8 -27 12 -67 12 l-63 0 -166 -390z
m307 55 l64 -160 -140 -3 c-78 -1 -143 0 -146 2 -4 5 106 292 131 341 12 23 2
44 91 -180z"/>
<path d="M10030 2830 l0 -400 230 0 230 0 0 55 0 55 -165 0 -165 0 0 345 0
345 -65 0 -65 0 0 -400z"/>
<path d="M10657 3223 c-4 -3 -7 -183 -7 -400 l0 -393 230 0 230 0 0 55 0 55
-165 0 -165 0 0 345 0 345 -58 0 c-32 0 -62 -3 -65 -7z"/>
<path d="M11260 2830 l0 -400 225 0 225 0 0 55 0 55 -165 0 -165 0 0 125 0
125 150 0 150 0 0 55 0 55 -150 0 -150 0 0 110 0 110 165 0 165 0 0 55 0 55
-225 0 -225 0 0 -400z"/>
<path d="M2210 2838 l0 -384 556 -154 557 -155 -482 -3 -481 -2 0 -622 c0
-535 2 -620 14 -608 68 71 1016 1216 1013 1224 -3 9 -865 807 -1104 1023 l-73
65 0 -384z"/>
<path d="M6701 1929 c-167 -29 -276 -149 -302 -334 -24 -176 40 -348 160 -424
154 -99 382 -74 501 56 76 83 95 141 95 298 0 121 -2 134 -28 190 -36 77 -68
118 -120 153 -80 56 -200 79 -306 61z m189 -129 c144 -73 189 -330 84 -482
-98 -141 -330 -124 -408 30 -97 192 -18 427 159 473 43 11 122 1 165 -21z"/>
<path d="M3907 1527 c-92 -216 -167 -396 -167 -400 0 -4 29 -7 64 -7 l63 0 39
100 39 100 191 0 192 0 39 -97 39 -98 68 -3 c62 -3 68 -1 62 15 -4 10 -79 190
-168 401 l-162 382 -65 0 -66 0 -168 -393z m307 79 c37 -92 65 -170 63 -172
-2 -3 -67 -3 -145 -2 l-140 3 71 178 c39 97 74 174 77 170 4 -5 37 -84 74
-177z"/>
<path d="M4680 1520 l0 -400 60 0 60 0 0 400 0 400 -60 0 -60 0 0 -400z"/>
<path d="M5030 1520 l0 -400 60 0 60 0 0 175 0 175 67 0 c90 0 103 -14 183
-199 l65 -151 68 0 c40 0 67 4 67 10 0 21 -144 316 -172 352 -32 42 -34 48
-15 48 8 0 32 13 54 29 99 72 96 250 -5 318 -49 32 -118 43 -282 43 l-150 0 0
-400z m315 276 c35 -15 65 -59 65 -96 0 -69 -62 -109 -181 -117 l-79 -6 0 117
0 116 80 0 c47 0 95 -6 115 -14z"/>
<path d="M5750 1520 l0 -400 65 0 65 0 0 159 0 159 103 4 c131 4 203 35 247
105 60 94 49 225 -25 299 -62 62 -113 74 -302 74 l-153 0 0 -400z m310 268
c79 -40 99 -119 48 -184 -30 -38 -77 -54 -158 -54 l-70 0 0 130 0 130 68 0
c50 0 79 -6 112 -22z"/>
<path d="M7350 1520 l0 -400 65 0 65 0 0 175 0 175 66 0 c85 0 90 -6 175 -197
l66 -148 66 -3 c52 -2 67 0 67 11 0 23 -158 345 -181 368 -11 11 -19 21 -17
22 108 54 131 85 136 176 3 54 -1 74 -20 111 -45 89 -112 110 -338 110 l-150
0 0 -400z m314 276 c62 -26 83 -85 50 -147 -20 -39 -69 -59 -161 -66 l-73 -6
0 117 0 116 75 0 c42 0 90 -6 109 -14z"/>
<path d="M8000 1865 l0 -55 120 0 120 0 0 -345 0 -345 65 0 65 0 0 345 0 345
120 0 120 0 0 55 0 55 -305 0 -305 0 0 -55z"/>
</g>
</svg>
